<mxfile host="app.diagrams.net" modified="2021-07-09T01:24:15.459Z" agent="5.0 (Windows NT 10.0; Win64; x64) AppleWebKit/537.36 (KHTML, like Gecko) Chrome/91.0.4472.124 Safari/537.36" etag="YYSXCutxZbnZam2Tfhmn" version="14.8.1" type="github">
  <diagram id="ZiF6qrn4zQHtPVLtg95X" name="Page-1">
    <mxGraphModel dx="781" dy="465" grid="1" gridSize="10" guides="1" tooltips="1" connect="1" arrows="1" fold="1" page="1" pageScale="1" pageWidth="850" pageHeight="1100" math="0" shadow="0">
      <root>
        <mxCell id="0" />
        <mxCell id="1" parent="0" />
        <mxCell id="wQaQeXqW4J1XTySHEI4G-2" value="" style="endArrow=none;dashed=1;html=1;dashPattern=1 3;strokeWidth=2;" edge="1" parent="1">
          <mxGeometry width="50" height="50" relative="1" as="geometry">
            <mxPoint x="795" y="270" as="sourcePoint" />
            <mxPoint x="795" y="270" as="targetPoint" />
            <Array as="points">
              <mxPoint x="445" y="270" />
              <mxPoint x="445" y="60" />
              <mxPoint x="795" y="60" />
            </Array>
          </mxGeometry>
        </mxCell>
        <mxCell id="wQaQeXqW4J1XTySHEI4G-3" value="" style="endArrow=none;dashed=1;html=1;dashPattern=1 3;strokeWidth=2;" edge="1" parent="1">
          <mxGeometry width="50" height="50" relative="1" as="geometry">
            <mxPoint x="815" y="300" as="sourcePoint" />
            <mxPoint x="815" y="300" as="targetPoint" />
            <Array as="points">
              <mxPoint x="285" y="300" />
              <mxPoint x="285" y="50" />
              <mxPoint x="815" y="50" />
            </Array>
          </mxGeometry>
        </mxCell>
        <mxCell id="wQaQeXqW4J1XTySHEI4G-4" value="Professor" style="rounded=0;whiteSpace=wrap;html=1;" vertex="1" parent="1">
          <mxGeometry x="35" y="100" width="120" height="40" as="geometry" />
        </mxCell>
        <mxCell id="wQaQeXqW4J1XTySHEI4G-5" value="Grader" style="rounded=0;whiteSpace=wrap;html=1;" vertex="1" parent="1">
          <mxGeometry x="35" y="150" width="120" height="40" as="geometry" />
        </mxCell>
        <mxCell id="wQaQeXqW4J1XTySHEI4G-6" value="Student" style="rounded=0;whiteSpace=wrap;html=1;" vertex="1" parent="1">
          <mxGeometry x="35" y="200" width="120" height="40" as="geometry" />
        </mxCell>
        <mxCell id="wQaQeXqW4J1XTySHEI4G-7" value="interact" style="rounded=1;whiteSpace=wrap;html=1;" vertex="1" parent="1">
          <mxGeometry x="245" y="125" width="90" height="40" as="geometry" />
        </mxCell>
        <mxCell id="wQaQeXqW4J1XTySHEI4G-8" value="display" style="rounded=1;whiteSpace=wrap;html=1;" vertex="1" parent="1">
          <mxGeometry x="245" y="175" width="90" height="40" as="geometry" />
        </mxCell>
        <mxCell id="wQaQeXqW4J1XTySHEI4G-9" value="set" style="rounded=1;whiteSpace=wrap;html=1;" vertex="1" parent="1">
          <mxGeometry x="405" y="70" width="90" height="40" as="geometry" />
        </mxCell>
        <mxCell id="wQaQeXqW4J1XTySHEI4G-10" value="edit" style="rounded=1;whiteSpace=wrap;html=1;" vertex="1" parent="1">
          <mxGeometry x="405" y="120" width="90" height="40" as="geometry" />
        </mxCell>
        <mxCell id="wQaQeXqW4J1XTySHEI4G-11" value="get" style="rounded=1;whiteSpace=wrap;html=1;" vertex="1" parent="1">
          <mxGeometry x="405" y="170" width="90" height="40" as="geometry" />
        </mxCell>
        <mxCell id="wQaQeXqW4J1XTySHEI4G-12" value="display" style="rounded=1;whiteSpace=wrap;html=1;" vertex="1" parent="1">
          <mxGeometry x="405" y="220" width="90" height="40" as="geometry" />
        </mxCell>
        <mxCell id="wQaQeXqW4J1XTySHEI4G-13" value="" style="endArrow=none;html=1;" edge="1" parent="1">
          <mxGeometry width="50" height="50" relative="1" as="geometry">
            <mxPoint x="635" y="160" as="sourcePoint" />
            <mxPoint x="705" y="160" as="targetPoint" />
          </mxGeometry>
        </mxCell>
        <mxCell id="wQaQeXqW4J1XTySHEI4G-14" value="" style="endArrow=none;html=1;" edge="1" parent="1">
          <mxGeometry width="50" height="50" relative="1" as="geometry">
            <mxPoint x="635" y="195" as="sourcePoint" />
            <mxPoint x="705" y="195" as="targetPoint" />
          </mxGeometry>
        </mxCell>
        <mxCell id="wQaQeXqW4J1XTySHEI4G-15" value="Scores" style="text;html=1;strokeColor=none;fillColor=none;align=center;verticalAlign=middle;whiteSpace=wrap;rounded=0;" vertex="1" parent="1">
          <mxGeometry x="648" y="170" width="40" height="20" as="geometry" />
        </mxCell>
        <mxCell id="wQaQeXqW4J1XTySHEI4G-16" value="write" style="rounded=1;whiteSpace=wrap;html=1;" vertex="1" parent="1">
          <mxGeometry x="565" y="245" width="90" height="40" as="geometry" />
        </mxCell>
        <mxCell id="wQaQeXqW4J1XTySHEI4G-17" value="read" style="rounded=1;whiteSpace=wrap;html=1;" vertex="1" parent="1">
          <mxGeometry x="688" y="245" width="90" height="40" as="geometry" />
        </mxCell>
        <mxCell id="wQaQeXqW4J1XTySHEI4G-18" value="" style="endArrow=classic;html=1;exitX=1;exitY=0.5;exitDx=0;exitDy=0;entryX=0;entryY=0.5;entryDx=0;entryDy=0;" edge="1" parent="1" source="wQaQeXqW4J1XTySHEI4G-4" target="wQaQeXqW4J1XTySHEI4G-7">
          <mxGeometry width="50" height="50" relative="1" as="geometry">
            <mxPoint x="335" y="110" as="sourcePoint" />
            <mxPoint x="385" y="60" as="targetPoint" />
          </mxGeometry>
        </mxCell>
        <mxCell id="wQaQeXqW4J1XTySHEI4G-19" value="" style="endArrow=classic;html=1;exitX=1;exitY=0.5;exitDx=0;exitDy=0;entryX=0;entryY=0.5;entryDx=0;entryDy=0;" edge="1" parent="1" source="wQaQeXqW4J1XTySHEI4G-5" target="wQaQeXqW4J1XTySHEI4G-7">
          <mxGeometry width="50" height="50" relative="1" as="geometry">
            <mxPoint x="335" y="110" as="sourcePoint" />
            <mxPoint x="385" y="60" as="targetPoint" />
          </mxGeometry>
        </mxCell>
        <mxCell id="wQaQeXqW4J1XTySHEI4G-20" value="" style="endArrow=classic;html=1;exitX=1;exitY=0.5;exitDx=0;exitDy=0;entryX=0;entryY=0.5;entryDx=0;entryDy=0;" edge="1" parent="1" source="wQaQeXqW4J1XTySHEI4G-7" target="wQaQeXqW4J1XTySHEI4G-9">
          <mxGeometry width="50" height="50" relative="1" as="geometry">
            <mxPoint x="335" y="110" as="sourcePoint" />
            <mxPoint x="385" y="60" as="targetPoint" />
          </mxGeometry>
        </mxCell>
        <mxCell id="wQaQeXqW4J1XTySHEI4G-21" value="" style="endArrow=classic;html=1;exitX=1;exitY=0.5;exitDx=0;exitDy=0;entryX=0;entryY=0.5;entryDx=0;entryDy=0;" edge="1" parent="1" source="wQaQeXqW4J1XTySHEI4G-7" target="wQaQeXqW4J1XTySHEI4G-10">
          <mxGeometry width="50" height="50" relative="1" as="geometry">
            <mxPoint x="335" y="110" as="sourcePoint" />
            <mxPoint x="385" y="60" as="targetPoint" />
          </mxGeometry>
        </mxCell>
        <mxCell id="wQaQeXqW4J1XTySHEI4G-22" value="" style="endArrow=classic;html=1;exitX=1;exitY=0.5;exitDx=0;exitDy=0;" edge="1" parent="1" source="wQaQeXqW4J1XTySHEI4G-9">
          <mxGeometry width="50" height="50" relative="1" as="geometry">
            <mxPoint x="335" y="110" as="sourcePoint" />
            <mxPoint x="625" y="170" as="targetPoint" />
          </mxGeometry>
        </mxCell>
        <mxCell id="wQaQeXqW4J1XTySHEI4G-23" value="" style="endArrow=classic;html=1;exitX=1;exitY=0.5;exitDx=0;exitDy=0;" edge="1" parent="1" source="wQaQeXqW4J1XTySHEI4G-10">
          <mxGeometry width="50" height="50" relative="1" as="geometry">
            <mxPoint x="335" y="110" as="sourcePoint" />
            <mxPoint x="625" y="170" as="targetPoint" />
          </mxGeometry>
        </mxCell>
        <mxCell id="wQaQeXqW4J1XTySHEI4G-24" value="" style="endArrow=classic;html=1;entryX=1;entryY=0.5;entryDx=0;entryDy=0;" edge="1" parent="1" target="wQaQeXqW4J1XTySHEI4G-11">
          <mxGeometry width="50" height="50" relative="1" as="geometry">
            <mxPoint x="625" y="170" as="sourcePoint" />
            <mxPoint x="385" y="60" as="targetPoint" />
          </mxGeometry>
        </mxCell>
        <mxCell id="wQaQeXqW4J1XTySHEI4G-25" value="" style="endArrow=classic;html=1;entryX=1;entryY=0.5;entryDx=0;entryDy=0;" edge="1" parent="1" target="wQaQeXqW4J1XTySHEI4G-12">
          <mxGeometry width="50" height="50" relative="1" as="geometry">
            <mxPoint x="625" y="170" as="sourcePoint" />
            <mxPoint x="385" y="60" as="targetPoint" />
          </mxGeometry>
        </mxCell>
        <mxCell id="wQaQeXqW4J1XTySHEI4G-26" value="" style="endArrow=classic;html=1;entryX=0.5;entryY=0;entryDx=0;entryDy=0;" edge="1" parent="1" target="wQaQeXqW4J1XTySHEI4G-16">
          <mxGeometry width="50" height="50" relative="1" as="geometry">
            <mxPoint x="665" y="200" as="sourcePoint" />
            <mxPoint x="415" y="-70" as="targetPoint" />
          </mxGeometry>
        </mxCell>
        <mxCell id="wQaQeXqW4J1XTySHEI4G-27" value="" style="endArrow=classic;html=1;exitX=0.5;exitY=1;exitDx=0;exitDy=0;" edge="1" parent="1" source="wQaQeXqW4J1XTySHEI4G-16">
          <mxGeometry width="50" height="50" relative="1" as="geometry">
            <mxPoint x="335" y="110" as="sourcePoint" />
            <mxPoint x="665" y="322" as="targetPoint" />
          </mxGeometry>
        </mxCell>
        <mxCell id="wQaQeXqW4J1XTySHEI4G-28" value="" style="endArrow=none;html=1;" edge="1" parent="1">
          <mxGeometry width="50" height="50" relative="1" as="geometry">
            <mxPoint x="633" y="320" as="sourcePoint" />
            <mxPoint x="703" y="320" as="targetPoint" />
          </mxGeometry>
        </mxCell>
        <mxCell id="wQaQeXqW4J1XTySHEI4G-29" value="" style="endArrow=none;html=1;" edge="1" parent="1">
          <mxGeometry width="50" height="50" relative="1" as="geometry">
            <mxPoint x="633" y="355" as="sourcePoint" />
            <mxPoint x="703" y="355" as="targetPoint" />
          </mxGeometry>
        </mxCell>
        <mxCell id="wQaQeXqW4J1XTySHEI4G-30" value="scores.txt" style="text;html=1;strokeColor=none;fillColor=none;align=center;verticalAlign=middle;whiteSpace=wrap;rounded=0;" vertex="1" parent="1">
          <mxGeometry x="646" y="330" width="40" height="20" as="geometry" />
        </mxCell>
        <mxCell id="wQaQeXqW4J1XTySHEI4G-31" value="" style="endArrow=classic;html=1;entryX=0.5;entryY=1;entryDx=0;entryDy=0;" edge="1" parent="1" target="wQaQeXqW4J1XTySHEI4G-17">
          <mxGeometry width="50" height="50" relative="1" as="geometry">
            <mxPoint x="675" y="320" as="sourcePoint" />
            <mxPoint x="735" y="290" as="targetPoint" />
          </mxGeometry>
        </mxCell>
        <mxCell id="wQaQeXqW4J1XTySHEI4G-32" value="" style="endArrow=classic;html=1;exitX=0.5;exitY=0;exitDx=0;exitDy=0;" edge="1" parent="1" source="wQaQeXqW4J1XTySHEI4G-17">
          <mxGeometry width="50" height="50" relative="1" as="geometry">
            <mxPoint x="695" y="250" as="sourcePoint" />
            <mxPoint x="675" y="200" as="targetPoint" />
          </mxGeometry>
        </mxCell>
        <mxCell id="wQaQeXqW4J1XTySHEI4G-33" value="" style="endArrow=classic;html=1;exitX=0;exitY=0.5;exitDx=0;exitDy=0;entryX=1;entryY=0.5;entryDx=0;entryDy=0;" edge="1" parent="1" source="wQaQeXqW4J1XTySHEI4G-12" target="wQaQeXqW4J1XTySHEI4G-8">
          <mxGeometry width="50" height="50" relative="1" as="geometry">
            <mxPoint x="455" y="250" as="sourcePoint" />
            <mxPoint x="505" y="200" as="targetPoint" />
          </mxGeometry>
        </mxCell>
        <mxCell id="wQaQeXqW4J1XTySHEI4G-34" value="" style="endArrow=classic;html=1;exitX=0;exitY=0.5;exitDx=0;exitDy=0;entryX=1;entryY=0.5;entryDx=0;entryDy=0;" edge="1" parent="1" source="wQaQeXqW4J1XTySHEI4G-11" target="wQaQeXqW4J1XTySHEI4G-8">
          <mxGeometry width="50" height="50" relative="1" as="geometry">
            <mxPoint x="455" y="250" as="sourcePoint" />
            <mxPoint x="505" y="200" as="targetPoint" />
          </mxGeometry>
        </mxCell>
        <mxCell id="wQaQeXqW4J1XTySHEI4G-35" value="" style="endArrow=classic;html=1;entryX=1;entryY=0.5;entryDx=0;entryDy=0;exitX=0;exitY=0.5;exitDx=0;exitDy=0;" edge="1" parent="1" source="wQaQeXqW4J1XTySHEI4G-8" target="wQaQeXqW4J1XTySHEI4G-6">
          <mxGeometry width="50" height="50" relative="1" as="geometry">
            <mxPoint x="135" y="250" as="sourcePoint" />
            <mxPoint x="185" y="200" as="targetPoint" />
          </mxGeometry>
        </mxCell>
        <mxCell id="wQaQeXqW4J1XTySHEI4G-36" value="Interface" style="text;html=1;strokeColor=none;fillColor=none;align=center;verticalAlign=middle;whiteSpace=wrap;rounded=0;" vertex="1" parent="1">
          <mxGeometry x="294" y="280" width="40" height="20" as="geometry" />
        </mxCell>
        <mxCell id="wQaQeXqW4J1XTySHEI4G-37" value="StudentGrades" style="text;strokeColor=none;fillColor=none;align=left;verticalAlign=top;spacingLeft=4;spacingRight=4;overflow=hidden;rotatable=0;points=[[0,0.5],[1,0.5]];portConstraint=eastwest;" vertex="1" parent="1">
          <mxGeometry x="699" y="60" width="96" height="26" as="geometry" />
        </mxCell>
      </root>
    </mxGraphModel>
  </diagram>
</mxfile>
